# xmcd
#
# Track frame offsets: 
#        182
#        2097
#        24812
#        69337
#        97297
#        111362
#        126190
#        141482
#        159937
#        180565
#        185765
#        198495
#        229797
#        247067
#        265727
#
# Disc length: 3932 seconds
#
# Revision: 1
# Processed by: cddbd v1.5.2PL0 Copyright (c) Steve Scherf et al.
# Submitted via: ExactAudioCopyFreeDBPlugin 1.0
#
DISCID=d30f5a0f
DTITLE=Chris Hinze - Tikania
DYEAR=1991
DGENRE=New Age
TTITLE0=Leaving Western Society
TTITLE1=Last day of traveling the unknown
TTITLE2=Tikania: The peoples welcome ceremony
TTITLE3=The Bonfire: Offering to the Volcano
TTITLE4=At the cotton mill
TTITLE5=In Praise of Na
TTITLE6=The beautiful Dawning
TTITLE7=Daily live in the Village
TTITLE8=The forge
TTITLE9=Tikania my love - Part I
TTITLE10=Tikania my love - Part II
TTITLE11=Offering of the Sea
TTITLE12=The rain forest
TTITLE13=Harvest
TTITLE14=The last farewell
EXTD=YEAR: 1991
EXTT0=
EXTT1=
EXTT2=
EXTT3=
EXTT4=
EXTT5=
EXTT6=
EXTT7=
EXTT8=
EXTT9=
EXTT10=
EXTT11=
EXTT12=
EXTT13=
EXTT14=
PLAYORDER=
